<?xml version="1.0" standalone="no"?><!-- Generator: Gravit.io --><svg xmlns="http://www.w3.org/2000/svg" xmlns:xlink="http://www.w3.org/1999/xlink" style="isolation:isolate" viewBox="0 0 512 70" width="512" height="70"><defs><clipPath id="_clipPath_dccXgK2VSxDjShuWaOlGRw4CqfU5qzhg"><rect width="512" height="70"/></clipPath></defs><g clip-path="url(#_clipPath_dccXgK2VSxDjShuWaOlGRw4CqfU5qzhg)"><path d=" M 386.954 51.94 L 378.596 58.883 L 378.596 58.883 Q 376.604 60.554 373.518 61.422 L 373.518 61.422 L 373.518 61.422 Q 370.432 62.29 366.253 62.29 L 366.253 62.29 L 344.588 62.29 L 344.588 62.29 Q 343.045 62.29 342.338 61.583 L 342.338 61.583 L 342.338 61.583 Q 341.631 60.876 341.631 59.333 L 341.631 59.333 L 341.631 17.674 L 341.631 17.674 Q 341.631 16.839 341.856 16.26 L 341.856 16.26 L 341.856 16.26 Q 342.081 15.682 342.531 15.296 L 342.531 15.296 L 350.824 8.288 L 350.824 8.288 Q 351.146 8.031 351.692 7.871 L 351.692 7.871 L 351.692 7.871 Q 352.239 7.71 352.881 7.71 L 352.881 7.71 L 374.546 7.71 L 374.546 7.71 Q 382.968 7.71 386.986 11.117 L 386.986 11.117 L 386.986 11.117 Q 391.004 14.524 391.004 21.467 L 391.004 21.467 L 391.004 41.525 L 391.004 41.525 Q 391.004 44.997 389.975 47.6 L 389.975 47.6 L 389.975 47.6 Q 388.947 50.204 386.954 51.94 L 386.954 51.94 Z  M 352.881 54.64 L 374.546 54.64 L 374.546 54.64 Q 382.582 54.64 386.472 51.425 L 386.472 51.425 L 386.472 51.425 Q 390.361 48.211 390.361 41.525 L 390.361 41.525 L 390.361 21.467 L 390.361 21.467 Q 390.361 14.782 386.472 11.567 L 386.472 11.567 L 386.472 11.567 Q 382.582 8.353 374.546 8.353 L 374.546 8.353 L 352.881 8.353 L 352.881 8.353 Q 351.66 8.353 351.114 8.899 L 351.114 8.899 L 351.114 8.899 Q 350.567 9.446 350.567 10.667 L 350.567 10.667 L 350.567 52.326 L 350.567 52.326 Q 350.567 53.547 351.114 54.093 L 351.114 54.093 L 351.114 54.093 Q 351.66 54.64 352.881 54.64 L 352.881 54.64 Z  M 373.132 48.854 L 357.574 48.854 L 357.574 14.139 L 373.132 14.139 L 373.132 14.139 Q 376.411 14.139 378.436 14.846 L 378.436 14.846 L 378.436 14.846 Q 380.461 15.553 381.554 16.742 L 381.554 16.742 L 381.554 16.742 Q 382.647 17.932 383.032 19.571 L 383.032 19.571 L 383.032 19.571 Q 383.418 21.21 383.418 23.075 L 383.418 23.075 L 383.418 40.111 L 383.418 40.111 Q 383.418 41.975 383.064 43.582 L 383.064 43.582 L 383.064 43.582 Q 382.711 45.19 381.618 46.347 L 381.618 46.347 L 381.618 46.347 Q 380.525 47.504 378.468 48.179 L 378.468 48.179 L 378.468 48.179 Q 376.411 48.854 373.132 48.854 L 373.132 48.854 Z  M 373.132 14.782 L 373.132 14.782 L 358.217 14.782 L 358.217 48.211 L 373.132 48.211 L 373.132 48.211 Q 376.218 48.211 378.114 47.6 L 378.114 47.6 L 378.114 47.6 Q 380.011 46.99 381.039 45.929 L 381.039 45.929 L 381.039 45.929 Q 382.068 44.868 382.422 43.357 L 382.422 43.357 L 382.422 43.357 Q 382.775 41.847 382.775 40.111 L 382.775 40.111 L 382.775 23.075 L 382.775 23.075 Q 382.775 21.339 382.389 19.796 L 382.389 19.796 L 382.389 19.796 Q 382.004 18.253 380.975 17.16 L 380.975 17.16 L 380.975 17.16 Q 379.947 16.067 378.05 15.424 L 378.05 15.424 L 378.05 15.424 Q 376.154 14.782 373.132 14.782 Z  M 365.16 42.49 L 365.16 20.632 L 372.811 20.632 L 372.811 20.632 Q 374.353 20.632 375.093 21.371 L 375.093 21.371 L 375.093 21.371 Q 375.832 22.11 375.832 23.718 L 375.832 23.718 L 375.832 39.339 L 375.832 39.339 Q 375.832 40.947 375.093 41.718 L 375.093 41.718 L 375.093 41.718 Q 374.353 42.49 372.811 42.49 L 372.811 42.49 L 365.16 42.49 Z  M 366.896 41.847 L 366.896 30.725 L 366.896 30.725 Q 366.896 29.889 366.639 29.311 L 366.639 29.311 L 366.639 29.311 Q 366.382 28.732 365.803 28.475 L 365.803 28.475 L 365.803 41.847 L 366.896 41.847 Z  M 411.447 35.161 L 411.447 35.161 L 411.447 37.154 L 436.52 37.154 L 436.52 35.161 L 436.52 35.161 Q 436.52 33.425 436.23 31.946 L 436.23 31.946 L 436.23 31.946 Q 435.941 30.468 435.491 29.182 L 435.491 29.182 L 431.055 18.703 L 431.055 18.703 Q 430.348 17.032 429.577 15.907 L 429.577 15.907 L 429.577 15.907 Q 428.805 14.782 427.005 14.782 L 427.005 14.782 L 420.705 14.782 L 420.705 14.782 Q 418.776 14.782 418.005 15.907 L 418.005 15.907 L 418.005 15.907 Q 417.233 17.032 416.59 18.639 L 416.59 18.639 L 412.476 29.182 L 412.476 29.182 Q 412.026 30.468 411.737 31.946 L 411.737 31.946 L 411.737 31.946 Q 411.447 33.425 411.447 35.161 Z  M 418.712 31.625 L 421.733 21.853 L 421.733 21.853 Q 421.991 21.275 422.28 21.017 L 422.28 21.017 L 422.28 21.017 Q 422.569 20.76 422.955 20.76 L 422.955 20.76 L 424.562 20.76 L 424.562 20.76 Q 424.948 20.76 425.237 21.017 L 425.237 21.017 L 425.237 21.017 Q 425.526 21.275 425.784 21.853 L 425.784 21.853 L 428.805 31.625 L 418.712 31.625 Z  M 437.162 48.854 L 436.52 48.854 L 436.52 37.797 L 411.447 37.797 L 411.447 48.854 L 410.805 48.854 L 410.805 35.161 L 410.805 35.161 Q 410.805 33.361 411.094 31.85 L 411.094 31.85 L 411.094 31.85 Q 411.383 30.339 411.897 28.925 L 411.897 28.925 L 416.012 18.382 L 416.012 18.382 Q 416.719 16.582 417.619 15.36 L 417.619 15.36 L 417.619 15.36 Q 418.519 14.139 420.705 14.139 L 420.705 14.139 L 427.005 14.139 L 427.005 14.139 Q 429.127 14.139 429.994 15.36 L 429.994 15.36 L 429.994 15.36 Q 430.862 16.582 431.634 18.446 L 431.634 18.446 L 436.07 28.925 L 436.07 28.925 Q 436.584 30.339 436.873 31.85 L 436.873 31.85 L 436.873 31.85 Q 437.162 33.361 437.162 35.161 L 437.162 35.161 L 437.162 48.854 Z  M 418.069 52.326 L 418.069 52.326 L 418.069 43.325 L 429.448 43.325 L 429.448 52.326 L 429.448 52.326 Q 429.448 53.547 430.059 54.093 L 430.059 54.093 L 430.059 54.093 Q 430.669 54.64 431.955 54.64 L 431.955 54.64 L 441.663 54.64 L 441.663 54.64 Q 442.884 54.64 443.431 54.093 L 443.431 54.093 L 443.431 54.093 Q 443.977 53.547 443.977 52.326 L 443.977 52.326 L 443.977 35.354 L 443.977 35.354 Q 443.977 33.425 443.366 30.918 L 443.366 30.918 L 443.366 30.918 Q 442.755 28.411 441.47 25.068 L 441.47 25.068 L 435.877 10.474 L 435.877 10.474 Q 435.491 9.381 434.687 8.867 L 434.687 8.867 L 434.687 8.867 Q 433.884 8.353 432.662 8.353 L 432.662 8.353 L 415.369 8.353 L 415.369 8.353 Q 414.083 8.353 413.28 8.867 L 413.28 8.867 L 413.28 8.867 Q 412.476 9.381 412.09 10.474 L 412.09 10.474 L 406.497 25.068 L 406.497 25.068 Q 405.212 28.411 404.601 30.918 L 404.601 30.918 L 404.601 30.918 Q 403.99 33.425 403.99 35.354 L 403.99 35.354 L 403.99 52.326 L 403.99 52.326 Q 403.99 53.547 404.537 54.093 L 404.537 54.093 L 404.537 54.093 Q 405.083 54.64 406.304 54.64 L 406.304 54.64 L 415.755 54.64 L 415.755 54.64 Q 416.976 54.64 417.523 54.093 L 417.523 54.093 L 417.523 54.093 Q 418.069 53.547 418.069 52.326 Z  M 417.812 54.704 L 409.455 61.647 L 409.455 61.647 Q 409.197 61.904 408.651 62.097 L 408.651 62.097 L 408.651 62.097 Q 408.104 62.29 407.462 62.29 L 407.462 62.29 L 398.011 62.29 L 398.011 62.29 Q 396.468 62.29 395.761 61.583 L 395.761 61.583 L 395.761 61.583 Q 395.054 60.876 395.054 59.333 L 395.054 59.333 L 395.054 42.361 L 395.054 42.361 Q 395.054 40.368 395.665 37.829 L 395.665 37.829 L 395.665 37.829 Q 396.276 35.289 397.626 31.818 L 397.626 31.818 L 403.154 17.289 L 403.154 17.289 Q 403.347 16.71 403.636 16.292 L 403.636 16.292 L 403.636 16.292 Q 403.926 15.874 404.247 15.553 L 404.247 15.553 L 404.312 15.489 L 412.54 8.61 L 412.54 8.61 Q 413.055 8.16 413.762 7.935 L 413.762 7.935 L 413.762 7.935 Q 414.469 7.71 415.369 7.71 L 415.369 7.71 L 432.662 7.71 L 432.662 7.71 Q 434.141 7.71 435.073 8.321 L 435.073 8.321 L 435.073 8.321 Q 436.005 8.931 436.455 10.217 L 436.455 10.217 L 442.048 24.81 L 442.048 24.81 Q 443.398 28.282 444.009 30.821 L 444.009 30.821 L 444.009 30.821 Q 444.62 33.361 444.62 35.354 L 444.62 35.354 L 444.62 52.326 L 444.62 52.326 Q 444.62 53.161 444.395 53.74 L 444.395 53.74 L 444.395 53.74 Q 444.17 54.318 443.72 54.704 L 443.72 54.704 L 435.362 61.647 L 435.362 61.647 Q 435.105 61.904 434.559 62.097 L 434.559 62.097 L 434.559 62.097 Q 434.012 62.29 433.37 62.29 L 433.37 62.29 L 423.662 62.29 L 423.662 62.29 Q 422.055 62.29 421.283 61.551 L 421.283 61.551 L 421.283 61.551 Q 420.512 60.811 420.512 59.333 L 420.512 59.333 L 420.512 50.975 L 418.712 50.975 L 418.712 52.326 L 418.712 52.326 Q 418.712 53.161 418.487 53.74 L 418.487 53.74 L 418.487 53.74 Q 418.262 54.318 417.812 54.704 L 417.812 54.704 Z  M 494.7 51.94 L 486.342 58.883 L 486.342 58.883 Q 484.35 60.554 481.264 61.422 L 481.264 61.422 L 481.264 61.422 Q 478.178 62.29 473.999 62.29 L 473.999 62.29 L 452.334 62.29 L 452.334 62.29 Q 450.791 62.29 450.084 61.583 L 450.084 61.583 L 450.084 61.583 Q 449.377 60.876 449.377 59.333 L 449.377 59.333 L 449.377 17.674 L 449.377 17.674 Q 449.377 16.839 449.602 16.26 L 449.602 16.26 L 449.602 16.26 Q 449.827 15.682 450.277 15.296 L 450.277 15.296 L 458.57 8.288 L 458.57 8.288 Q 458.892 8.031 459.438 7.871 L 459.438 7.871 L 459.438 7.871 Q 459.985 7.71 460.627 7.71 L 460.627 7.71 L 482.292 7.71 L 482.292 7.71 Q 490.714 7.71 494.732 11.117 L 494.732 11.117 L 494.732 11.117 Q 498.75 14.524 498.75 21.467 L 498.75 21.467 L 498.75 41.525 L 498.75 41.525 Q 498.75 44.997 497.721 47.6 L 497.721 47.6 L 497.721 47.6 Q 496.693 50.204 494.7 51.94 L 494.7 51.94 Z  M 460.627 54.64 L 482.292 54.64 L 482.292 54.64 Q 490.328 54.64 494.218 51.425 L 494.218 51.425 L 494.218 51.425 Q 498.107 48.211 498.107 41.525 L 498.107 41.525 L 498.107 21.467 L 498.107 21.467 Q 498.107 14.782 494.218 11.567 L 494.218 11.567 L 494.218 11.567 Q 490.328 8.353 482.292 8.353 L 482.292 8.353 L 460.627 8.353 L 460.627 8.353 Q 459.406 8.353 458.86 8.899 L 458.86 8.899 L 458.86 8.899 Q 458.313 9.446 458.313 10.667 L 458.313 10.667 L 458.313 52.326 L 458.313 52.326 Q 458.313 53.547 458.86 54.093 L 458.86 54.093 L 458.86 54.093 Q 459.406 54.64 460.627 54.64 L 460.627 54.64 Z  M 480.878 48.854 L 465.32 48.854 L 465.32 14.139 L 480.878 14.139 L 480.878 14.139 Q 484.157 14.139 486.182 14.846 L 486.182 14.846 L 486.182 14.846 Q 488.207 15.553 489.3 16.742 L 489.3 16.742 L 489.3 16.742 Q 490.393 17.932 490.778 19.571 L 490.778 19.571 L 490.778 19.571 Q 491.164 21.21 491.164 23.075 L 491.164 23.075 L 491.164 40.111 L 491.164 40.111 Q 491.164 41.975 490.81 43.582 L 490.81 43.582 L 490.81 43.582 Q 490.457 45.19 489.364 46.347 L 489.364 46.347 L 489.364 46.347 Q 488.271 47.504 486.214 48.179 L 486.214 48.179 L 486.214 48.179 Q 484.157 48.854 480.878 48.854 L 480.878 48.854 Z  M 480.878 14.782 L 480.878 14.782 L 465.963 14.782 L 465.963 48.211 L 480.878 48.211 L 480.878 48.211 Q 483.964 48.211 485.86 47.6 L 485.86 47.6 L 485.86 47.6 Q 487.757 46.99 488.785 45.929 L 488.785 45.929 L 488.785 45.929 Q 489.814 44.868 490.168 43.357 L 490.168 43.357 L 490.168 43.357 Q 490.521 41.847 490.521 40.111 L 490.521 40.111 L 490.521 23.075 L 490.521 23.075 Q 490.521 21.339 490.135 19.796 L 490.135 19.796 L 490.135 19.796 Q 489.75 18.253 488.721 17.16 L 488.721 17.16 L 488.721 17.16 Q 487.693 16.067 485.796 15.424 L 485.796 15.424 L 485.796 15.424 Q 483.9 14.782 480.878 14.782 Z  M 472.906 42.49 L 472.906 20.632 L 480.557 20.632 L 480.557 20.632 Q 482.1 20.632 482.839 21.371 L 482.839 21.371 L 482.839 21.371 Q 483.578 22.11 483.578 23.718 L 483.578 23.718 L 483.578 39.339 L 483.578 39.339 Q 483.578 40.947 482.839 41.718 L 482.839 41.718 L 482.839 41.718 Q 482.1 42.49 480.557 42.49 L 480.557 42.49 L 472.906 42.49 Z  M 474.642 41.847 L 474.642 30.725 L 474.642 30.725 Q 474.642 29.889 474.385 29.311 L 474.385 29.311 L 474.385 29.311 Q 474.128 28.732 473.549 28.475 L 473.549 28.475 L 473.549 41.847 L 474.642 41.847 Z  M 45.394 62.29 L 45.394 62.29 L 29.708 62.29 L 29.708 62.29 Q 21.286 62.29 17.268 57.919 L 17.268 57.919 L 17.268 57.919 Q 13.25 53.547 13.25 46.604 L 13.25 46.604 L 13.25 28.539 L 13.25 28.539 Q 13.25 25.003 14.279 22.4 L 14.279 22.4 L 14.279 22.4 Q 15.307 19.796 17.3 18.06 L 17.3 18.06 L 25.658 11.053 L 25.658 11.053 Q 27.65 9.381 30.736 8.546 L 30.736 8.546 L 30.736 8.546 Q 33.822 7.71 38.001 7.71 L 38.001 7.71 L 53.687 7.71 L 53.687 7.71 Q 55.23 7.71 55.937 8.417 L 55.937 8.417 L 55.937 8.417 Q 56.644 9.124 56.644 10.667 L 56.644 10.667 L 56.644 18.446 L 56.644 18.446 Q 56.644 19.282 56.419 19.86 L 56.419 19.86 L 56.419 19.86 Q 56.194 20.439 55.744 20.825 L 55.744 20.825 L 47.387 27.768 L 47.387 27.768 Q 47.13 28.025 46.583 28.218 L 46.583 28.218 L 46.583 28.218 Q 46.037 28.411 45.394 28.411 L 45.394 28.411 L 37.486 28.411 L 37.486 39.275 L 37.486 39.275 Q 37.486 40.625 38.322 41.172 L 38.322 41.172 L 38.322 41.172 Q 39.158 41.718 40.765 41.718 L 40.765 41.718 L 53.687 41.718 L 53.687 41.718 Q 55.23 41.718 55.937 42.425 L 55.937 42.425 L 55.937 42.425 Q 56.644 43.132 56.644 44.675 L 56.644 44.675 L 56.644 52.326 L 56.644 52.326 Q 56.644 53.161 56.419 53.74 L 56.419 53.74 L 56.419 53.74 Q 56.194 54.318 55.744 54.704 L 55.744 54.704 L 47.387 61.647 L 47.387 61.647 Q 47.13 61.904 46.583 62.097 L 46.583 62.097 L 46.583 62.097 Q 46.037 62.29 45.394 62.29 Z  M 38.001 54.64 L 53.687 54.64 L 53.687 54.64 Q 54.908 54.64 55.455 54.093 L 55.455 54.093 L 55.455 54.093 Q 56.001 53.547 56.001 52.326 L 56.001 52.326 L 56.001 44.675 L 56.001 44.675 Q 56.001 43.454 55.455 42.907 L 55.455 42.907 L 55.455 42.907 Q 54.908 42.361 53.687 42.361 L 53.687 42.361 L 40.765 42.361 L 40.765 42.361 Q 38.772 42.361 37.808 41.622 L 37.808 41.622 L 37.808 41.622 Q 36.844 40.882 36.844 39.275 L 36.844 39.275 L 36.844 23.975 L 36.844 23.975 Q 36.844 22.367 37.808 21.564 L 37.808 21.564 L 37.808 21.564 Q 38.772 20.76 40.765 20.76 L 40.765 20.76 L 53.687 20.76 L 53.687 20.76 Q 54.908 20.76 55.455 20.214 L 55.455 20.214 L 55.455 20.214 Q 56.001 19.667 56.001 18.446 L 56.001 18.446 L 56.001 10.667 L 56.001 10.667 Q 56.001 9.446 55.455 8.899 L 55.455 8.899 L 55.455 8.899 Q 54.908 8.353 53.687 8.353 L 53.687 8.353 L 38.001 8.353 L 38.001 8.353 Q 29.965 8.353 26.075 11.599 L 26.075 11.599 L 26.075 11.599 Q 22.186 14.846 22.186 21.532 L 22.186 21.532 L 22.186 41.525 L 22.186 41.525 Q 22.186 48.211 26.075 51.425 L 26.075 51.425 L 26.075 51.425 Q 29.965 54.64 38.001 54.64 L 38.001 54.64 Z  M 39.415 48.211 L 50.151 48.211 L 50.151 48.854 L 39.415 48.854 L 39.415 48.854 Q 33.179 48.854 31.154 46.925 L 31.154 46.925 L 31.154 46.925 Q 29.129 44.997 29.129 40.561 L 29.129 40.561 L 29.129 22.56 L 29.129 22.56 Q 29.129 17.996 31.186 16.067 L 31.186 16.067 L 31.186 16.067 Q 33.243 14.139 39.415 14.139 L 39.415 14.139 L 50.151 14.139 L 50.151 14.782 L 39.415 14.782 L 39.415 14.782 Q 33.758 14.782 31.765 16.549 L 31.765 16.549 L 31.765 16.549 Q 29.772 18.317 29.772 22.56 L 29.772 22.56 L 29.772 40.561 L 29.772 40.561 Q 29.772 44.74 31.701 46.475 L 31.701 46.475 L 31.701 46.475 Q 33.629 48.211 39.415 48.211 L 39.415 48.211 Z  M 105.374 52.261 L 97.081 59.204 L 97.081 59.204 Q 94.831 61.133 90.781 62.194 L 90.781 62.194 L 90.781 62.194 Q 86.731 63.254 80.366 63.254 L 80.366 63.254 L 80.366 63.254 Q 74.066 63.254 70.048 61.937 L 70.048 61.937 L 70.048 61.937 Q 66.03 60.619 63.748 58.433 L 63.748 58.433 L 63.748 58.433 Q 61.466 56.247 60.598 53.418 L 60.598 53.418 L 60.598 53.418 Q 59.73 50.59 59.73 47.568 L 59.73 47.568 L 59.73 27.575 L 59.73 27.575 Q 59.73 24.618 60.566 22.078 L 60.566 22.078 L 60.566 22.078 Q 61.401 19.539 63.587 17.739 L 63.587 17.739 L 71.945 10.796 L 71.945 10.796 Q 74.195 8.867 78.213 7.806 L 78.213 7.806 L 78.213 7.806 Q 82.231 6.746 88.659 6.746 L 88.659 6.746 L 88.659 6.746 Q 94.96 6.746 98.978 7.774 L 98.978 7.774 L 98.978 7.774 Q 102.995 8.803 105.278 10.635 L 105.278 10.635 L 105.278 10.635 Q 107.56 12.467 108.396 15.007 L 108.396 15.007 L 108.396 15.007 Q 109.231 17.546 109.231 20.567 L 109.231 20.567 L 109.231 42.49 L 109.231 42.49 Q 109.231 45.447 108.396 47.954 L 108.396 47.954 L 108.396 47.954 Q 107.56 50.461 105.374 52.261 L 105.374 52.261 Z  M 108.589 42.49 L 108.589 42.49 L 108.589 20.567 L 108.589 20.567 Q 108.589 17.61 107.721 15.199 L 107.721 15.199 L 107.721 15.199 Q 106.853 12.789 104.635 11.053 L 104.635 11.053 L 104.635 11.053 Q 102.417 9.317 98.528 8.353 L 98.528 8.353 L 98.528 8.353 Q 94.638 7.388 88.659 7.388 L 88.659 7.388 L 88.659 7.388 Q 82.681 7.388 78.759 8.353 L 78.759 8.353 L 78.759 8.353 Q 74.838 9.317 72.62 11.053 L 72.62 11.053 L 72.62 11.053 Q 70.402 12.789 69.534 15.199 L 69.534 15.199 L 69.534 15.199 Q 68.666 17.61 68.666 20.567 L 68.666 20.567 L 68.666 42.49 L 68.666 42.49 Q 68.666 45.447 69.534 47.858 L 69.534 47.858 L 69.534 47.858 Q 70.402 50.268 72.62 51.972 L 72.62 51.972 L 72.62 51.972 Q 74.838 53.676 78.759 54.64 L 78.759 54.64 L 78.759 54.64 Q 82.681 55.604 88.659 55.604 L 88.659 55.604 L 88.659 55.604 Q 94.638 55.604 98.528 54.64 L 98.528 54.64 L 98.528 54.64 Q 102.417 53.676 104.635 51.972 L 104.635 51.972 L 104.635 51.972 Q 106.853 50.268 107.721 47.858 L 107.721 47.858 L 107.721 47.858 Q 108.589 45.447 108.589 42.49 Z  M 101.581 22.046 L 101.581 41.011 L 101.581 41.011 Q 101.581 44.868 98.817 47.279 L 98.817 47.279 L 98.817 47.279 Q 96.052 49.69 88.531 49.69 L 88.531 49.69 L 88.531 49.69 Q 81.009 49.69 78.309 47.279 L 78.309 47.279 L 78.309 47.279 Q 75.609 44.868 75.609 41.011 L 75.609 41.011 L 75.609 22.046 L 75.609 22.046 Q 75.609 18.189 78.309 15.778 L 78.309 15.778 L 78.309 15.778 Q 81.009 13.367 88.531 13.367 L 88.531 13.367 L 88.531 13.367 Q 96.052 13.367 98.817 15.778 L 98.817 15.778 L 98.817 15.778 Q 101.581 18.189 101.581 22.046 L 101.581 22.046 Z  M 76.252 22.046 L 76.252 41.011 L 76.252 41.011 Q 76.252 44.611 78.823 46.829 L 78.823 46.829 L 78.823 46.829 Q 81.395 49.047 88.531 49.047 L 88.531 49.047 L 88.531 49.047 Q 95.667 49.047 98.303 46.829 L 98.303 46.829 L 98.303 46.829 Q 100.938 44.611 100.938 41.011 L 100.938 41.011 L 100.938 22.046 L 100.938 22.046 Q 100.938 18.446 98.303 16.228 L 98.303 16.228 L 98.303 16.228 Q 95.667 14.01 88.531 14.01 L 88.531 14.01 L 88.531 14.01 Q 81.395 14.01 78.823 16.228 L 78.823 16.228 L 78.823 16.228 Q 76.252 18.446 76.252 22.046 L 76.252 22.046 Z  M 83.259 40.175 L 83.259 40.175 L 83.259 22.882 L 83.259 22.882 Q 83.259 21.66 84.224 20.792 L 84.224 20.792 L 84.224 20.792 Q 85.188 19.925 88.659 19.925 L 88.659 19.925 L 88.659 19.925 Q 92.131 19.925 93.095 20.792 L 93.095 20.792 L 93.095 20.792 Q 94.06 21.66 94.06 22.882 L 94.06 22.882 L 94.06 40.175 L 94.06 40.175 Q 94.06 41.461 93.095 42.329 L 93.095 42.329 L 93.095 42.329 Q 92.131 43.197 88.659 43.197 L 88.659 43.197 L 88.659 43.197 Q 85.188 43.197 84.224 42.329 L 84.224 42.329 L 84.224 42.329 Q 83.259 41.461 83.259 40.175 Z  M 83.902 28.025 L 83.902 40.175 L 83.902 40.175 Q 83.902 40.818 84.159 41.3 L 84.159 41.3 L 84.159 41.3 Q 84.416 41.782 85.124 42.104 L 85.124 42.104 L 85.124 29.889 L 85.124 29.889 Q 85.124 29.246 84.866 28.764 L 84.866 28.764 L 84.866 28.764 Q 84.609 28.282 83.902 28.025 L 83.902 28.025 Z  M 159.569 51.94 L 151.211 58.883 L 151.211 58.883 Q 149.218 60.554 146.132 61.422 L 146.132 61.422 L 146.132 61.422 Q 143.047 62.29 138.868 62.29 L 138.868 62.29 L 117.203 62.29 L 117.203 62.29 Q 115.66 62.29 114.953 61.583 L 114.953 61.583 L 114.953 61.583 Q 114.246 60.876 114.246 59.333 L 114.246 59.333 L 114.246 17.674 L 114.246 17.674 Q 114.246 16.839 114.471 16.26 L 114.471 16.26 L 114.471 16.26 Q 114.696 15.682 115.146 15.296 L 115.146 15.296 L 123.439 8.288 L 123.439 8.288 Q 123.76 8.031 124.307 7.871 L 124.307 7.871 L 124.307 7.871 Q 124.853 7.71 125.496 7.71 L 125.496 7.71 L 147.161 7.71 L 147.161 7.71 Q 155.583 7.71 159.601 11.117 L 159.601 11.117 L 159.601 11.117 Q 163.619 14.524 163.619 21.467 L 163.619 21.467 L 163.619 41.525 L 163.619 41.525 Q 163.619 44.997 162.59 47.6 L 162.59 47.6 L 162.59 47.6 Q 161.562 50.204 159.569 51.94 L 159.569 51.94 Z  M 125.496 54.64 L 147.161 54.64 L 147.161 54.64 Q 155.197 54.64 159.086 51.425 L 159.086 51.425 L 159.086 51.425 Q 162.976 48.211 162.976 41.525 L 162.976 41.525 L 162.976 21.467 L 162.976 21.467 Q 162.976 14.782 159.086 11.567 L 159.086 11.567 L 159.086 11.567 Q 155.197 8.353 147.161 8.353 L 147.161 8.353 L 125.496 8.353 L 125.496 8.353 Q 124.275 8.353 123.728 8.899 L 123.728 8.899 L 123.728 8.899 Q 123.182 9.446 123.182 10.667 L 123.182 10.667 L 123.182 52.326 L 123.182 52.326 Q 123.182 53.547 123.728 54.093 L 123.728 54.093 L 123.728 54.093 Q 124.275 54.64 125.496 54.64 L 125.496 54.64 Z  M 145.747 48.854 L 130.189 48.854 L 130.189 14.139 L 145.747 14.139 L 145.747 14.139 Q 149.025 14.139 151.05 14.846 L 151.05 14.846 L 151.05 14.846 Q 153.076 15.553 154.168 16.742 L 154.168 16.742 L 154.168 16.742 Q 155.261 17.932 155.647 19.571 L 155.647 19.571 L 155.647 19.571 Q 156.033 21.21 156.033 23.075 L 156.033 23.075 L 156.033 40.111 L 156.033 40.111 Q 156.033 41.975 155.679 43.582 L 155.679 43.582 L 155.679 43.582 Q 155.326 45.19 154.233 46.347 L 154.233 46.347 L 154.233 46.347 Q 153.14 47.504 151.083 48.179 L 151.083 48.179 L 151.083 48.179 Q 149.025 48.854 145.747 48.854 L 145.747 48.854 Z  M 145.747 14.782 L 145.747 14.782 L 130.832 14.782 L 130.832 48.211 L 145.747 48.211 L 145.747 48.211 Q 148.833 48.211 150.729 47.6 L 150.729 47.6 L 150.729 47.6 Q 152.626 46.99 153.654 45.929 L 153.654 45.929 L 153.654 45.929 Q 154.683 44.868 155.036 43.357 L 155.036 43.357 L 155.036 43.357 Q 155.39 41.847 155.39 40.111 L 155.39 40.111 L 155.39 23.075 L 155.39 23.075 Q 155.39 21.339 155.004 19.796 L 155.004 19.796 L 155.004 19.796 Q 154.618 18.253 153.59 17.16 L 153.59 17.16 L 153.59 17.16 Q 152.561 16.067 150.665 15.424 L 150.665 15.424 L 150.665 15.424 Q 148.768 14.782 145.747 14.782 Z  M 137.775 42.49 L 137.775 20.632 L 145.425 20.632 L 145.425 20.632 Q 146.968 20.632 147.708 21.371 L 147.708 21.371 L 147.708 21.371 Q 148.447 22.11 148.447 23.718 L 148.447 23.718 L 148.447 39.339 L 148.447 39.339 Q 148.447 40.947 147.708 41.718 L 147.708 41.718 L 147.708 41.718 Q 146.968 42.49 145.425 42.49 L 145.425 42.49 L 137.775 42.49 Z  M 139.511 41.847 L 139.511 30.725 L 139.511 30.725 Q 139.511 29.889 139.254 29.311 L 139.254 29.311 L 139.254 29.311 Q 138.997 28.732 138.418 28.475 L 138.418 28.475 L 138.418 41.847 L 139.511 41.847 Z  M 197.948 62.29 L 197.948 62.29 L 170.562 62.29 L 170.562 62.29 Q 169.019 62.29 168.312 61.583 L 168.312 61.583 L 168.312 61.583 Q 167.605 60.876 167.605 59.333 L 167.605 59.333 L 167.605 51.683 L 167.605 51.683 Q 167.605 50.847 167.83 50.268 L 167.83 50.268 L 167.83 50.268 Q 168.055 49.69 168.505 49.304 L 168.505 49.304 L 176.283 42.747 L 176.283 28.411 L 170.562 28.411 L 170.562 28.411 Q 169.019 28.411 168.312 27.703 L 168.312 27.703 L 168.312 27.703 Q 167.605 26.996 167.605 25.453 L 167.605 25.453 L 167.605 17.674 L 167.605 17.674 Q 167.605 16.839 167.83 16.26 L 167.83 16.26 L 167.83 16.26 Q 168.055 15.682 168.505 15.296 L 168.505 15.296 L 176.798 8.288 L 176.798 8.288 Q 177.119 8.031 177.666 7.871 L 177.666 7.871 L 177.666 7.871 Q 178.212 7.71 178.855 7.71 L 178.855 7.71 L 206.241 7.71 L 206.241 7.71 Q 207.784 7.71 208.491 8.417 L 208.491 8.417 L 208.491 8.417 Q 209.199 9.124 209.199 10.667 L 209.199 10.667 L 209.199 18.446 L 209.199 18.446 Q 209.199 19.282 208.974 19.86 L 208.974 19.86 L 208.974 19.86 Q 208.749 20.439 208.299 20.825 L 208.299 20.825 L 200.648 27.253 L 200.648 41.718 L 206.241 41.718 L 206.241 41.718 Q 207.784 41.718 208.491 42.425 L 208.491 42.425 L 208.491 42.425 Q 209.199 43.132 209.199 44.675 L 209.199 44.675 L 209.199 52.326 L 209.199 52.326 Q 209.199 53.161 208.974 53.74 L 208.974 53.74 L 208.974 53.74 Q 208.749 54.318 208.299 54.704 L 208.299 54.704 L 199.941 61.647 L 199.941 61.647 Q 199.684 61.904 199.138 62.097 L 199.138 62.097 L 199.138 62.097 Q 198.591 62.29 197.948 62.29 Z  M 178.855 54.64 L 178.855 54.64 L 206.241 54.64 L 206.241 54.64 Q 207.463 54.64 208.009 54.093 L 208.009 54.093 L 208.009 54.093 Q 208.556 53.547 208.556 52.326 L 208.556 52.326 L 208.556 44.675 L 208.556 44.675 Q 208.556 43.454 208.009 42.907 L 208.009 42.907 L 208.009 42.907 Q 207.463 42.361 206.241 42.361 L 206.241 42.361 L 200.005 42.361 L 200.005 20.76 L 206.241 20.76 L 206.241 20.76 Q 207.463 20.76 208.009 20.214 L 208.009 20.214 L 208.009 20.214 Q 208.556 19.667 208.556 18.446 L 208.556 18.446 L 208.556 10.667 L 208.556 10.667 Q 208.556 9.446 208.009 8.899 L 208.009 8.899 L 208.009 8.899 Q 207.463 8.353 206.241 8.353 L 206.241 8.353 L 178.855 8.353 L 178.855 8.353 Q 177.633 8.353 177.087 8.899 L 177.087 8.899 L 177.087 8.899 Q 176.541 9.446 176.541 10.667 L 176.541 10.667 L 176.541 18.446 L 176.541 18.446 Q 176.541 19.667 177.087 20.214 L 177.087 20.214 L 177.087 20.214 Q 177.633 20.76 178.855 20.76 L 178.855 20.76 L 185.219 20.76 L 185.219 42.361 L 178.855 42.361 L 178.855 42.361 Q 177.633 42.361 177.087 42.907 L 177.087 42.907 L 177.087 42.907 Q 176.541 43.454 176.541 44.675 L 176.541 44.675 L 176.541 52.326 L 176.541 52.326 Q 176.541 53.547 177.087 54.093 L 177.087 54.093 L 177.087 54.093 Q 177.633 54.64 178.855 54.64 Z  M 202.77 48.211 L 202.77 48.854 L 182.326 48.854 L 182.326 48.211 L 192.291 48.211 L 192.291 14.782 L 182.326 14.782 L 182.326 14.139 L 202.77 14.139 L 202.77 14.782 L 192.934 14.782 L 192.934 48.211 L 202.77 48.211 Z  M 231.378 14.653 L 231.378 14.653 L 255.036 41.268 L 255.036 14.139 L 255.679 14.139 L 255.679 48.854 L 255.036 48.854 L 255.036 42.232 L 230.735 14.974 L 230.735 14.974 Q 230.671 14.91 230.574 14.846 L 230.574 14.846 L 230.574 14.846 Q 230.478 14.782 230.414 14.782 L 230.414 14.782 L 230.414 14.782 Q 230.349 14.782 230.317 14.846 L 230.317 14.846 L 230.317 14.846 Q 230.285 14.91 230.285 14.974 L 230.285 14.974 L 230.285 48.854 L 229.642 48.854 L 229.642 14.846 L 229.642 14.846 Q 229.642 14.46 229.899 14.267 L 229.899 14.267 L 229.899 14.267 Q 230.156 14.074 230.414 14.074 L 230.414 14.074 L 230.414 14.074 Q 230.671 14.074 230.864 14.203 L 230.864 14.203 L 230.864 14.203 Q 231.056 14.332 231.378 14.653 Z  M 225.206 54.64 L 234.849 54.64 L 234.849 54.64 Q 236.071 54.64 236.617 54.093 L 236.617 54.093 L 236.617 54.093 Q 237.164 53.547 237.164 52.326 L 237.164 52.326 L 237.164 31.111 L 248.157 44.418 L 248.157 52.326 L 248.157 52.326 Q 248.157 53.547 248.703 54.093 L 248.703 54.093 L 248.703 54.093 Q 249.25 54.64 250.471 54.64 L 250.471 54.64 L 260.114 54.64 L 260.114 54.64 Q 261.336 54.64 261.882 54.093 L 261.882 54.093 L 261.882 54.093 Q 262.429 53.547 262.429 52.326 L 262.429 52.326 L 262.429 10.667 L 262.429 10.667 Q 262.429 9.446 261.882 8.899 L 261.882 8.899 L 261.882 8.899 Q 261.336 8.353 260.114 8.353 L 260.114 8.353 L 250.471 8.353 L 250.471 8.353 Q 249.25 8.353 248.703 8.899 L 248.703 8.899 L 248.703 8.899 Q 248.157 9.446 248.157 10.667 L 248.157 10.667 L 248.157 24.36 L 235.685 10.089 L 235.685 10.089 Q 234.849 9.124 233.981 8.739 L 233.981 8.739 L 233.981 8.739 Q 233.114 8.353 231.892 8.353 L 231.892 8.353 L 225.206 8.353 L 225.206 8.353 Q 223.985 8.353 223.438 8.899 L 223.438 8.899 L 223.438 8.899 Q 222.892 9.446 222.892 10.667 L 222.892 10.667 L 222.892 52.326 L 222.892 52.326 Q 222.892 53.547 223.438 54.093 L 223.438 54.093 L 223.438 54.093 Q 223.985 54.64 225.206 54.64 L 225.206 54.64 Z  M 236.907 54.704 L 236.907 54.704 L 228.549 61.647 L 228.549 61.647 Q 228.292 61.904 227.746 62.097 L 227.746 62.097 L 227.746 62.097 Q 227.199 62.29 226.556 62.29 L 226.556 62.29 L 216.913 62.29 L 216.913 62.29 Q 215.37 62.29 214.663 61.583 L 214.663 61.583 L 214.663 61.583 Q 213.956 60.876 213.956 59.333 L 213.956 59.333 L 213.956 17.674 L 213.956 17.674 Q 213.956 16.839 214.181 16.26 L 214.181 16.26 L 214.181 16.26 Q 214.406 15.682 214.856 15.296 L 214.856 15.296 L 223.149 8.288 L 223.149 8.288 Q 223.47 8.031 224.017 7.871 L 224.017 7.871 L 224.017 7.871 Q 224.563 7.71 225.206 7.71 L 225.206 7.71 L 231.892 7.71 L 231.892 7.71 Q 233.306 7.71 234.271 8.16 L 234.271 8.16 L 234.271 8.16 Q 235.235 8.61 236.199 9.639 L 236.199 9.639 L 240.635 14.782 L 248.414 8.288 L 248.414 8.288 Q 248.736 8.031 249.282 7.871 L 249.282 7.871 L 249.282 7.871 Q 249.828 7.71 250.471 7.71 L 250.471 7.71 L 260.114 7.71 L 260.114 7.71 Q 261.657 7.71 262.364 8.417 L 262.364 8.417 L 262.364 8.417 Q 263.072 9.124 263.072 10.667 L 263.072 10.667 L 263.072 52.326 L 263.072 52.326 Q 263.072 53.161 262.847 53.74 L 262.847 53.74 L 262.847 53.74 Q 262.622 54.318 262.172 54.704 L 262.172 54.704 L 253.814 61.647 L 253.814 61.647 Q 253.557 61.904 253.011 62.097 L 253.011 62.097 L 253.011 62.097 Q 252.464 62.29 251.821 62.29 L 251.821 62.29 L 242.178 62.29 L 242.178 62.29 Q 240.635 62.29 239.928 61.583 L 239.928 61.583 L 239.928 61.583 Q 239.221 60.876 239.221 59.333 L 239.221 59.333 L 239.221 51.683 L 237.807 49.947 L 237.807 52.326 L 237.807 52.326 Q 237.807 53.161 237.582 53.74 L 237.582 53.74 L 237.582 53.74 Q 237.357 54.318 236.907 54.704 Z  M 304.794 62.29 L 304.794 62.29 L 284.544 62.29 L 284.544 62.29 Q 276.122 62.29 272.104 57.919 L 272.104 57.919 L 272.104 57.919 Q 268.086 53.547 268.086 46.604 L 268.086 46.604 L 268.086 28.475 L 268.086 28.475 Q 268.086 24.939 269.115 22.367 L 269.115 22.367 L 269.115 22.367 Q 270.143 19.796 272.136 18.06 L 272.136 18.06 L 280.429 11.053 L 280.429 11.053 Q 282.422 9.381 285.54 8.546 L 285.54 8.546 L 285.54 8.546 Q 288.658 7.71 292.837 7.71 L 292.837 7.71 L 308.909 7.71 L 308.909 7.71 Q 310.452 7.71 311.159 8.417 L 311.159 8.417 L 311.159 8.417 Q 311.866 9.124 311.866 10.667 L 311.866 10.667 L 311.866 18.446 L 311.866 18.446 Q 311.866 19.282 311.641 19.86 L 311.641 19.86 L 311.641 19.86 Q 311.416 20.439 310.966 20.825 L 310.966 20.825 L 302.609 27.768 L 302.609 27.768 Q 302.351 28.025 301.805 28.218 L 301.805 28.218 L 301.805 28.218 Q 301.258 28.411 300.616 28.411 L 300.616 28.411 L 292.258 28.411 L 292.258 37.668 L 292.258 37.668 Q 292.322 37.539 292.483 37.379 L 292.483 37.379 L 292.483 37.379 Q 292.644 37.218 292.773 37.089 L 292.773 37.089 L 301.066 30.082 L 301.066 30.082 Q 301.387 29.825 301.933 29.664 L 301.933 29.664 L 301.933 29.664 Q 302.48 29.503 303.123 29.503 L 303.123 29.503 L 313.087 29.503 L 313.087 29.503 Q 314.63 29.503 315.337 30.211 L 315.337 30.211 L 315.337 30.211 Q 316.045 30.918 316.045 32.461 L 316.045 32.461 L 316.045 52.326 L 316.045 52.326 Q 316.045 53.161 315.82 53.74 L 315.82 53.74 L 315.82 53.74 Q 315.595 54.318 315.145 54.704 L 315.145 54.704 L 306.787 61.647 L 306.787 61.647 Q 306.53 61.904 305.984 62.097 L 305.984 62.097 L 305.984 62.097 Q 305.437 62.29 304.794 62.29 Z  M 292.837 54.64 L 313.087 54.64 L 313.087 54.64 Q 314.309 54.64 314.855 54.093 L 314.855 54.093 L 314.855 54.093 Q 315.402 53.547 315.402 52.326 L 315.402 52.326 L 315.402 32.461 L 315.402 32.461 Q 315.402 31.239 314.855 30.693 L 314.855 30.693 L 314.855 30.693 Q 314.309 30.146 313.087 30.146 L 313.087 30.146 L 303.123 30.146 L 303.123 30.146 Q 301.901 30.146 301.355 30.693 L 301.355 30.693 L 301.355 30.693 Q 300.808 31.239 300.808 32.461 L 300.808 32.461 L 300.808 42.49 L 294.573 42.49 L 294.573 42.49 Q 293.094 42.49 292.355 41.718 L 292.355 41.718 L 292.355 41.718 Q 291.615 40.947 291.615 39.339 L 291.615 39.339 L 291.615 23.975 L 291.615 23.975 Q 291.615 22.367 292.58 21.564 L 292.58 21.564 L 292.58 21.564 Q 293.544 20.76 295.537 20.76 L 295.537 20.76 L 308.909 20.76 L 308.909 20.76 Q 310.13 20.76 310.677 20.214 L 310.677 20.214 L 310.677 20.214 Q 311.223 19.667 311.223 18.446 L 311.223 18.446 L 311.223 10.667 L 311.223 10.667 Q 311.223 9.446 310.677 8.899 L 310.677 8.899 L 310.677 8.899 Q 310.13 8.353 308.909 8.353 L 308.909 8.353 L 292.837 8.353 L 292.837 8.353 Q 284.801 8.353 280.911 11.567 L 280.911 11.567 L 280.911 11.567 Q 277.022 14.782 277.022 21.467 L 277.022 21.467 L 277.022 41.525 L 277.022 41.525 Q 277.022 48.211 280.911 51.425 L 280.911 51.425 L 280.911 51.425 Q 284.801 54.64 292.837 54.64 L 292.837 54.64 Z  M 308.394 48.854 L 295.601 48.854 L 295.601 48.854 Q 292.065 48.854 289.815 48.404 L 289.815 48.404 L 289.815 48.404 Q 287.565 47.954 286.279 46.957 L 286.279 46.957 L 286.279 46.957 Q 284.994 45.961 284.512 44.386 L 284.512 44.386 L 284.512 44.386 Q 284.029 42.811 284.029 40.561 L 284.029 40.561 L 284.029 22.56 L 284.029 22.56 Q 284.029 17.996 286.087 16.067 L 286.087 16.067 L 286.087 16.067 Q 288.144 14.139 294.315 14.139 L 294.315 14.139 L 305.437 14.139 L 305.437 14.782 L 294.315 14.782 L 294.315 14.782 Q 288.658 14.782 286.665 16.549 L 286.665 16.549 L 286.665 16.549 Q 284.672 18.317 284.672 22.56 L 284.672 22.56 L 284.672 40.561 L 284.672 40.561 Q 284.672 44.74 286.89 46.475 L 286.89 46.475 L 286.89 46.475 Q 289.108 48.211 295.601 48.211 L 295.601 48.211 L 307.752 48.211 L 307.752 35.932 L 308.394 35.932 L 308.394 48.854 Z " fill="rgb(0,0,0)"/></g></svg>