<?xml version="1.0"?>
<!DOCTYPE svg PUBLIC "-//W3C//DTD SVG 20010904//EN" "http://www.w3.org/TR/2001/REC-SVG-20010904/DTD/svg10.dtd">
<svg version="1.0" xmlns="http://www.w3.org/2000/svg" width="260.000000pt" height="260.000000pt" viewBox="0 0 260.000000 260.000000" preserveAspectRatio="xMidYMid meet">
<metadata>
Created by potrace 1.11, written by Peter Selinger 2001-2013
</metadata>
<g transform="translate(0.000000,260.000000) scale(0.100000,-0.100000)" fill="#000000" stroke="none">
<path d="M1107 2473 c-37 -66 -34 -307 7 -446 57 -191 129 -277 233 -277 95 0 223 101 263 207 19 51 21 64 11 106 -6 27 -23 68 -37 92 -35 61 -172 187 -252 234 -112 65 -214 103 -225 84z"></path>
<path d="M246 2240 c-20 -104 2 -321 49 -465 64 -196 126 -254 272 -257 86 -1 143 16 192 59 104 88 91 243 -31 398 -108 136 -313 275 -431 291 -43 6 -44 6 -51 -26z"></path>
<path d="M1964 2118 c-4 -7 -10 -85 -12 -173 -5 -192 10 -290 64 -402 29 -61 42 -76 76 -94 93 -47 281 -3 336 80 37 57 26 144 -33 262 -74 146 -199 257 -351 315 -75 28 -71 27 -80 12z"></path>
<path d="M1626 1409 c-36 -10 -55 -27 -127 -116 -47 -57 -73 -79 -125 -104 -60 -30 -77 -33 -192 -39 -187 -10 -208 -25 -233 -176 -19 -119 -10 -522 17 -691 9 -62 119 -141 227 -163 74 -15 150 0 207 41 48 35 74 74 97 147 12 39 21 51 32 47 131 -40 190 -41 261 -5 59 30 124 122 144 202 3 15 10 38 15 52 l10 24 78 -25 c134 -42 237 -28 285 39 35 50 59 145 59 236 l0 83 -57 52 c-280 256 -583 429 -698 396z"></path>
<path d="M168 1187 c-19 -64 -16 -297 5 -380 60 -241 209 -350 372 -273 137 65 182 198 114 335 -62 124 -266 285 -436 345 l-43 15 -12 -42z"></path>
</g>
</svg>